<svg width="18" height="18" viewBox="0 0 18 18" fill="none" xmlns="http://www.w3.org/2000/svg">
<path d="M9.85675 0.66748C10.7946 0.66903 11.2698 0.673989 11.6805 0.686214L11.8422 0.691506C12.0291 0.698147 12.2134 0.706481 12.4357 0.716897C13.3224 0.757864 13.9273 0.898147 14.4586 1.1044C15.0078 1.3162 15.4717 1.60231 15.9349 2.06551C16.3974 2.5287 16.6836 2.99398 16.8961 3.5419C17.1016 4.07245 17.2419 4.67801 17.2836 5.56481C17.2935 5.78703 17.3015 5.97136 17.3081 6.15824L17.3133 6.31997C17.3255 6.7306 17.3311 7.20591 17.3328 8.14375L17.3335 8.76516C17.3336 8.84108 17.3336 8.91942 17.3336 9.00025L17.3335 9.23533L17.333 9.85675C17.3314 10.7946 17.3265 11.2698 17.3142 11.6805L17.3089 11.8422C17.3023 12.0291 17.294 12.2134 17.2836 12.4357C17.2426 13.3224 17.1016 13.9273 16.8961 14.4586C16.6842 15.0078 16.3974 15.4717 15.9349 15.9349C15.4717 16.3974 15.0057 16.6836 14.4586 16.8961C13.9273 17.1016 13.3224 17.2419 12.4357 17.2836C12.2134 17.2935 12.0291 17.3015 11.8422 17.3081L11.6805 17.3133C11.2698 17.3255 10.7946 17.3311 9.85675 17.3328L9.23533 17.3335C9.15941 17.3336 9.08108 17.3336 9.00025 17.3336L8.76516 17.3335L8.14375 17.333C7.20591 17.3314 6.7306 17.3265 6.31997 17.3142L6.15824 17.3089C5.97136 17.3023 5.78703 17.294 5.56481 17.2836C4.67801 17.2426 4.07384 17.1016 3.5419 16.8961C2.99328 16.6842 2.5287 16.3974 2.06551 15.9349C1.60231 15.4717 1.3169 15.0057 1.1044 14.4586C0.898147 13.9273 0.758564 13.3224 0.716897 12.4357C0.706997 12.2134 0.698922 12.0291 0.692381 11.8422L0.687139 11.6805C0.674947 11.2698 0.669389 10.7946 0.667589 9.85675L0.66748 8.14375C0.66903 7.20591 0.673989 6.7306 0.686214 6.31997L0.691506 6.15824C0.698147 5.97136 0.706481 5.78703 0.716897 5.56481C0.757864 4.67731 0.898147 4.07315 1.1044 3.5419C1.3162 2.99328 1.60231 2.5287 2.06551 2.06551C2.5287 1.60231 2.99398 1.3169 3.5419 1.1044C4.07315 0.898147 4.67731 0.758564 5.56481 0.716897C5.78703 0.706997 5.97136 0.698922 6.15824 0.692381L6.31997 0.687139C6.7306 0.674947 7.20591 0.669389 8.14375 0.667589L9.85675 0.66748ZM9.00025 4.83356C6.69781 4.83356 4.83356 6.69984 4.83356 9.00025C4.83356 11.3027 6.69984 13.1669 9.00025 13.1669C11.3027 13.1669 13.1669 11.3006 13.1669 9.00025C13.1669 6.69781 11.3006 4.83356 9.00025 4.83356ZM9.00025 6.50023C10.381 6.50023 11.5002 7.61908 11.5002 9.00025C11.5002 10.381 10.3813 11.5002 9.00025 11.5002C7.6195 11.5002 6.50023 10.3813 6.50023 9.00025C6.50023 7.6195 7.61908 6.50023 9.00025 6.50023ZM13.3752 3.58356C12.8008 3.58356 12.3336 4.05015 12.3336 4.62452C12.3336 5.19889 12.8002 5.6662 13.3752 5.6662C13.9496 5.6662 14.4169 5.19961 14.4169 4.62452C14.4169 4.05015 13.9488 3.58284 13.3752 3.58356Z" fill="#4338CA"/>
</svg>
