<svg width="16" height="16" viewBox="0 0 16 16" fill="none" xmlns="http://www.w3.org/2000/svg">
<path d="M13.2802 13.2825H11.059V9.80183C11.059 8.97183 11.0421 7.90375 9.90145 7.90375C8.74337 7.90375 8.56645 8.80692 8.56645 9.74058V13.2825H6.3452V6.125H8.47896V7.10058H8.5077C8.80587 6.53808 9.53087 5.94437 10.614 5.94437C12.8646 5.94437 13.2809 7.42567 13.2809 9.35375L13.2802 13.2825ZM3.83648 5.14562C3.12148 5.14562 2.5471 4.56687 2.5471 3.855C2.5471 3.14375 3.1221 2.56563 3.83648 2.56563C4.54898 2.56563 5.12648 3.14375 5.12648 3.855C5.12648 4.56687 4.54835 5.14562 3.83648 5.14562ZM4.95023 13.2825H2.72273V6.125H4.95023V13.2825ZM14.3915 0.5H1.60773C0.995854 0.5 0.500854 0.98375 0.500854 1.58063V14.4194C0.500854 15.0168 0.995854 15.5 1.60773 15.5H14.3896C15.0009 15.5 15.5009 15.0168 15.5009 14.4194V1.58063C15.5009 0.98375 15.0009 0.5 14.3896 0.5H14.3915Z" fill="#4338CA"/>
</svg>
