<svg width="20" height="19" viewBox="0 0 20 19" fill="none" xmlns="http://www.w3.org/2000/svg">
<g filter="url(#filter0_d_2_284)">
<path d="M10.0008 0.666664C5.39665 0.666664 1.66748 4.39583 1.66748 9C1.66748 12.6875 4.0529 15.8021 7.3654 16.9062C7.78206 16.9792 7.93831 16.7292 7.93831 16.5104C7.93831 16.3125 7.9279 15.6562 7.9279 14.9583C5.83415 15.3437 5.29248 14.4479 5.12581 13.9792C5.03206 13.7396 4.62581 13 4.27165 12.8021C3.97998 12.6458 3.56331 12.2604 4.26123 12.25C4.91748 12.2396 5.38623 12.8542 5.54248 13.1042C6.29248 14.3646 7.4904 14.0104 7.96956 13.7917C8.04248 13.25 8.26123 12.8854 8.50083 12.6771C6.64665 12.4687 4.70915 11.75 4.70915 8.5625C4.70915 7.65625 5.03206 6.90625 5.56331 6.32291C5.47998 6.11458 5.18831 5.26041 5.64665 4.11458C5.64665 4.11458 6.34456 3.89583 7.93831 4.96875C8.605 4.78125 9.31333 4.6875 10.0217 4.6875C10.73 4.6875 11.4383 4.78125 12.105 4.96875C13.6987 3.88541 14.3967 4.11458 14.3967 4.11458C14.855 5.26041 14.5633 6.11458 14.48 6.32291C15.0112 6.90625 15.3342 7.64583 15.3342 8.5625C15.3342 11.7604 13.3862 12.4687 11.5321 12.6771C11.8342 12.9375 12.0946 13.4375 12.0946 14.2187C12.0946 15.3333 12.0842 16.2292 12.0842 16.5104C12.0842 16.7292 12.2404 16.9896 12.6571 16.9062C16.0492 15.7611 18.3332 12.5802 18.3342 9C18.3342 4.39583 14.605 0.666664 10.0008 0.666664Z" fill="#4338CA"/>
<path d="M7.65053 13.05C6.92676 12.9 6.19357 12.6306 5.58726 12.1191C4.73222 11.3978 4.20915 10.2653 4.20915 8.5625C4.20915 7.64038 4.50465 6.84993 5.00224 6.21296C4.88267 5.76243 4.77846 4.93876 5.18241 3.92889L5.27058 3.70847L5.4971 3.63747L5.64665 4.11458C5.4971 3.63747 5.49759 3.63732 5.49807 3.63717L5.49905 3.63686L5.50107 3.63624L5.5053 3.63497L5.51461 3.6323C5.52117 3.63047 5.52848 3.62856 5.53652 3.6266C5.5526 3.62268 5.57159 3.61861 5.59353 3.61477C5.63745 3.60708 5.69283 3.60037 5.7599 3.59759C5.89435 3.59202 6.07328 3.60232 6.29877 3.65025C6.71396 3.73849 7.28357 3.95347 8.02608 4.42829C8.67234 4.26734 9.34795 4.1875 10.0217 4.1875C10.6949 4.1875 11.3701 4.26724 12.016 4.42797C12.7588 3.94872 13.3294 3.73313 13.7462 3.64599C13.9726 3.59866 14.1525 3.58951 14.2879 3.59634C14.3554 3.59974 14.4112 3.60709 14.4555 3.61537C14.4776 3.6195 14.4967 3.62385 14.5129 3.62801C14.521 3.6301 14.5284 3.63213 14.535 3.63407L14.5444 3.6369L14.5487 3.63824L14.5507 3.63889L14.5517 3.63922C14.5522 3.63938 14.5526 3.63953 14.3967 4.11458L14.5526 3.63953L14.7743 3.71231L14.8609 3.92889C15.2648 4.93857 15.1607 5.76213 15.0411 6.21272C15.5383 6.84746 15.8342 7.63049 15.8342 8.5625C15.8342 10.2709 15.3082 11.4039 14.4498 12.124C13.842 12.6338 13.1076 12.9011 12.3841 13.0502C12.5173 13.375 12.5946 13.7662 12.5946 14.2187C12.5946 14.7776 12.592 15.2814 12.5894 15.6803C12.5885 15.8143 12.5876 15.9359 12.5868 16.0436C12.5858 16.1902 12.5849 16.3111 12.5845 16.4025C15.7251 15.3012 17.8333 12.3349 17.8342 9L7.65053 13.05ZM7.65053 13.05C7.60264 13.1667 7.56197 13.2921 7.52972 13.4259C7.34749 13.4835 7.12623 13.5252 6.90337 13.5047C6.60602 13.4774 6.26351 13.3381 5.97216 12.8485L5.97227 12.8484L5.96648 12.8392C5.87116 12.6867 5.68259 12.4246 5.41079 12.1964C5.14009 11.9692 4.74562 11.7424 4.25377 11.7501C4.25361 11.7501 4.25345 11.7501 4.2533 11.7501L4.26123 12.25M7.65053 13.05L4.15079 12.7601C4.15077 12.76 4.15155 12.7598 4.15321 12.7594C4.15747 12.7581 4.16713 12.7548 4.18042 12.7481C3.90698 12.5716 3.63404 12.2594 4.26123 12.25M4.26123 12.25C4.28932 12.2496 4.31707 12.2503 4.34447 12.252M4.26123 12.25L4.34447 12.252M4.34447 12.252C4.33709 12.2379 4.33152 12.2309 4.33144 12.2309C4.33142 12.2309 4.33212 12.2318 4.33373 12.2337C4.3372 12.2377 4.34329 12.2441 4.35237 12.2526L4.34447 12.252ZM4.65794 14.1557C4.76743 14.4595 5.00659 14.915 5.55965 15.2252C6.00994 15.4777 6.61637 15.6046 7.42992 15.5317C7.43084 15.6726 7.43199 15.8057 7.43313 15.9266C7.43395 16.0133 7.43476 16.0931 7.43548 16.1649C7.43644 16.259 7.43725 16.3392 7.43776 16.4028C4.36762 15.3397 2.16748 12.4336 2.16748 9C2.16748 4.67197 5.67279 1.16666 10.0008 1.16666C14.3288 1.16666 17.8341 4.6719 17.8342 8.99987L4.65794 14.1557Z" stroke="black"/>
</g>
<defs>
<filter id="filter0_d_2_284" x="-2.33252" y="0.666664" width="24.6666" height="24.2555" filterUnits="userSpaceOnUse" color-interpolation-filters="sRGB">
<feFlood flood-opacity="0" result="BackgroundImageFix"/>
<feColorMatrix in="SourceAlpha" type="matrix" values="0 0 0 0 0 0 0 0 0 0 0 0 0 0 0 0 0 0 127 0" result="hardAlpha"/>
<feOffset dy="4"/>
<feGaussianBlur stdDeviation="2"/>
<feComposite in2="hardAlpha" operator="out"/>
<feColorMatrix type="matrix" values="0 0 0 0 0 0 0 0 0 0 0 0 0 0 0 0 0 0 0.25 0"/>
<feBlend mode="normal" in2="BackgroundImageFix" result="effect1_dropShadow_2_284"/>
<feBlend mode="normal" in="SourceGraphic" in2="effect1_dropShadow_2_284" result="shape"/>
</filter>
</defs>
</svg>
